<svg width="114" height="155" viewBox="0 0 114 155" fill="none" xmlns="http://www.w3.org/2000/svg">
<path d="M39.9123 106.602L14.2189 91.5857L56.9258 66.9897L99.7217 91.4868L74.0383 106.503L74.0679 100.404L89.737 91.4374L56.9753 72.5554L24.2827 91.4374L39.8826 100.72L39.9123 106.602Z" stroke="#C9AF60" stroke-width="2" stroke-miterlimit="10"/>
<path d="M23.9763 19.1717L49.5016 4.16501V53.6734L6.63651 78.2793L6.33005 49.037L11.6981 52.0917L11.5893 69.9258L44.4005 50.8955V12.9832L28.8303 21.9299L23.9763 19.1717Z" stroke="#C9AF60" stroke-width="2" stroke-miterlimit="10"/>
<path d="M89.9249 19.1717L64.3996 4.16501V53.6734L107.255 78.2793L107.561 49.037L102.193 52.0917L102.302 69.9258L69.5007 50.8955V12.9832L85.061 21.9299L89.9249 19.1717Z" stroke="#C9AF60" stroke-width="2" stroke-miterlimit="10"/>
<path d="M39.4576 15.8205L44.4005 12.9832V50.8955L39.4576 47.8012V15.8205Z" stroke="#C9AF60" stroke-width="2" stroke-miterlimit="10"/>
<path d="M74.3843 15.7216L69.4413 12.8843V50.7966L74.3843 47.7024V15.7216Z" stroke="#C9AF60" stroke-width="2" stroke-miterlimit="10"/>
<path d="M14.2189 18.7071V24.8956L56.9753 49.3434V43.4613L14.2189 18.7071Z" fill="#0A5334" stroke="#C9AF60" stroke-width="2" stroke-miterlimit="10"/>
<path d="M99.7613 18.8554V25.044L57.0049 49.4917V43.6096L99.7613 18.8554Z" fill="#0A5334" stroke="#C9AF60" stroke-width="2" stroke-miterlimit="10"/>
<path d="M44.4005 50.8955L11.5893 69.9258V64.2019L39.4575 47.8012L44.4005 50.8955Z" stroke="#C9AF60" stroke-width="2" stroke-miterlimit="10"/>
<path d="M69.3425 50.9944L102.144 70.0246V64.3007L74.2854 47.9001L69.3425 50.9944Z" stroke="#C9AF60" stroke-width="2" stroke-miterlimit="10"/>
<path d="M29.3443 94.4427L24.2827 91.4374L56.9753 72.5554L89.737 91.4374L84.4777 94.4427L59.1106 79.5151V153.481H54.7806V79.5151L29.3443 94.4427Z" stroke="#C9AF60" stroke-width="2" stroke-miterlimit="10"/>
<path d="M2 40.6834L44.4005 65.4376L48.7305 62.5015L6.79464 37.8956L2 40.6834Z" fill="#0A5334" stroke="#C9AF60" stroke-width="2" stroke-miterlimit="10"/>
<path d="M112 40.6834L69.5995 65.4376L65.2695 62.5015L107.205 37.8956L112 40.6834Z" fill="#0A5334" stroke="#C9AF60" stroke-width="2" stroke-miterlimit="10"/>
<path d="M48.7305 62.5015V112.168L44.7069 114.64L44.4005 65.4376L48.7305 62.5015Z" fill="#0A5334" stroke="#C9AF60" stroke-width="2" stroke-miterlimit="10"/>
<path d="M65.2102 62.5015V112.168L69.2337 114.64L69.5402 65.4376L65.2102 62.5015Z" fill="#0A5334" stroke="#C9AF60" stroke-width="2" stroke-miterlimit="10"/>
<path d="M2 75.6497V40.6834L44.4005 65.4376L44.7069 114.64L14.2189 97.1613V91.5857L39.9123 106.602L39.7541 68.0672L6.33001 49.0369L6.63647 78.2793L2 75.6497Z" fill="#0A5334" stroke="#C9AF60" stroke-width="2" stroke-miterlimit="10"/>
<path d="M111.951 75.5508V40.5845L69.5501 65.3387L69.2436 114.541L99.7217 97.0625V91.4868L74.0383 106.503L74.1964 67.9684L107.621 48.9381L107.304 78.1805L111.951 75.5508Z" fill="#0A5334" stroke="#C9AF60" stroke-width="2" stroke-miterlimit="10"/>
<path d="M48.7305 4.47147L44.4005 2L14.9999 18.8653L56.9753 43.4613L99.0199 19.1717L69.5402 2L65.2695 4.31329L89.4207 19.0136L57.0049 37.8956L23.9763 19.1717L48.7305 4.47147Z" fill="#0A5334" stroke="#C9AF60" stroke-width="2" stroke-miterlimit="10"/>
</svg>
